# xmcd CD database file
# Copyright (C) 1997 Ti Kan
#
# Track frame offsets:
#  150
#  17161
#  35478
#  64215
#  98117
#  111474
#  142024
#  161337
#  187746
#  202163
#  239872
#  257040
#
# Disc length: 3728 seconds
#
# Revision: 1
# Processed by: cddbd v1.5.2PL0 Copyright (c) Steve Scherf et al.
# Submitted via: CDWizzard Release:4.61
#
DISCID=b10e8e0c
DTITLE=Jimi Hendrix - Valleys of Neptune
DYEAR=1900
DGENRE=
TTITLE0=Stone Free
TTITLE1=Valley's of Neprune
TTITLE2=Bleeding Heart
TTITLE3=Hear My Train a Comin'
TTITLE4=Mr. Bad Luck
TTITLE5=Sunshine of your Love
TTITLE6=Lover Man
TTITLE7=Ship Passing through the Night
TTITLE8=Fire
TTITLE9=Red House
TTITLE10=Lullaby for the Summer
TTITLE11=Crying Blue Rain
EXTD=
EXTT0=
EXTT1=
EXTT2=
EXTT3=
EXTT4=
EXTT5=
EXTT6=
EXTT7=
EXTT8=
EXTT9=
EXTT10=
EXTT11=
PLAYORDER=
